<?xml version="1.0" encoding="UTF-8" standalone="no"?>
<svg width="926px" height="264px" viewBox="0 0 926 264" version="1.1" xmlns="http://www.w3.org/2000/svg" xmlns:xlink="http://www.w3.org/1999/xlink">
    <!-- Generator: Sketch 43 (38999) - http://www.bohemiancoding.com/sketch -->
    <title>about-headline</title>
    <desc>Created with Sketch.</desc>
    <defs></defs>
    <g id="Website" stroke="none" stroke-width="1" fill="none" fill-rule="evenodd">
        <g id="about" transform="translate(-250.000000, -183.000000)">
            <g id="about-headline" transform="translate(250.000000, 183.000000)">
                <g id="about-type" transform="translate(361.000000, 0.000000)" fill="#FF8552">
                    <path d="M54.708,2.544 C54.96,1.872 54.54,1.2 53.868,1.2 L43.536,1.2 C42.696,1.2 41.856,1.704 41.604,2.544 L27.408,37.824 L13.296,2.544 C12.96,1.704 12.204,1.2 11.364,1.2 L0.948,1.2 C0.276,1.2 -0.144,1.872 0.108,2.544 L25.896,59.832 C26.148,60.42 26.736,60.756 27.324,60.756 C27.996,60.756 28.584,60.42 28.836,59.832 L54.708,2.544 Z M92.088,0.192 C114.348,0.192 121.152,18.252 121.152,30.516 C121.152,43.116 114.348,60.924 92.088,60.924 C69.66,60.924 62.856,43.116 62.856,30.516 C62.856,18.252 69.66,0.192 92.088,0.192 Z M92.088,49.92 C106.872,49.92 109.056,35.304 109.056,30.516 C109.056,25.728 106.872,11.28 92.088,11.28 C77.052,11.28 74.952,25.728 74.952,30.516 C74.952,35.304 77.052,49.92 92.088,49.92 Z M146.52,2.628 C146.52,1.872 145.848,1.2 145.092,1.2 L136.02,1.2 C135.264,1.2 134.592,1.872 134.592,2.628 L134.592,58.572 C134.592,59.328 135.264,60 136.02,60 L167.1,60 C167.856,60 168.528,59.328 168.528,58.572 L168.528,50.508 C168.528,49.752 167.856,49.08 167.1,49.08 L146.52,49.08 L146.52,2.628 Z M204.48,49.752 C195.408,49.752 193.056,40.596 193.056,37.152 L193.056,2.628 C193.056,1.872 192.384,1.2 191.628,1.2 L182.556,1.2 C181.8,1.2 181.128,1.872 181.128,2.628 L181.128,37.152 C181.128,47.064 187.176,60.588 204.48,60.588 C221.784,60.588 227.832,47.064 227.832,37.152 L227.832,2.628 C227.832,1.872 227.16,1.2 226.404,1.2 L217.248,1.2 C216.492,1.2 215.82,1.872 215.82,2.628 L215.82,37.152 C215.82,40.596 213.552,49.752 204.48,49.752 Z M254.292,60 C255.048,60 255.72,59.328 255.72,58.572 L255.72,25.812 L289.404,59.832 C289.908,60.252 290.496,60.504 291.168,60.504 C291.756,60.504 292.176,60.084 292.176,59.496 L292.176,2.628 C292.176,1.872 291.504,1.2 290.748,1.2 L281.676,1.2 C280.92,1.2 280.248,1.872 280.248,2.628 L280.248,34.548 L246.9,1.368 C246.312,0.78 245.64,0.528 244.884,0.528 C244.296,0.528 243.792,1.032 243.792,1.704 L243.792,58.572 C243.792,59.328 244.464,60 245.22,60 L254.292,60 Z M320.232,58.572 C320.232,59.328 320.904,60 321.66,60 L330.816,60 C331.572,60 332.244,59.328 332.244,58.572 L332.244,12.12 L346.86,12.12 C347.616,12.12 348.288,11.448 348.288,10.692 L348.288,2.628 C348.288,1.872 347.616,1.2 346.86,1.2 L305.784,1.2 C305.028,1.2 304.356,1.872 304.356,2.628 L304.356,10.692 C304.356,11.448 305.028,12.12 305.784,12.12 L320.232,12.12 L320.232,58.572 Z M392.892,36.48 C393.648,36.48 394.32,35.808 394.32,35.052 L394.32,26.988 C394.32,26.232 393.648,25.56 392.892,25.56 L372.312,25.56 L372.312,12.12 L399.024,12.12 C399.78,12.12 400.452,11.448 400.452,10.692 L400.452,2.628 C400.452,1.872 399.78,1.2 399.024,1.2 L361.896,1.2 C361.14,1.2 360.468,1.872 360.468,2.628 L360.468,58.572 C360.468,59.328 361.14,60 361.896,60 L399.024,60 C399.78,60 400.452,59.328 400.452,58.572 L400.452,50.508 C400.452,49.752 399.78,49.08 399.024,49.08 L372.312,49.08 L372.312,36.48 L392.892,36.48 Z M446.316,36.48 C447.072,36.48 447.744,35.808 447.744,35.052 L447.744,26.988 C447.744,26.232 447.072,25.56 446.316,25.56 L425.736,25.56 L425.736,12.12 L452.448,12.12 C453.204,12.12 453.876,11.448 453.876,10.692 L453.876,2.628 C453.876,1.872 453.204,1.2 452.448,1.2 L415.32,1.2 C414.564,1.2 413.892,1.872 413.892,2.628 L413.892,58.572 C413.892,59.328 414.564,60 415.32,60 L452.448,60 C453.204,60 453.876,59.328 453.876,58.572 L453.876,50.508 C453.876,49.752 453.204,49.08 452.448,49.08 L425.736,49.08 L425.736,36.48 L446.316,36.48 Z M479.076,39.588 L479.076,58.572 C479.076,59.328 478.404,60 477.648,60 L468.744,60 C467.988,60 467.316,59.328 467.316,58.572 L467.316,2.628 C467.316,1.872 467.988,1.2 468.744,1.2 L489.576,1.2 C505.704,1.2 510.576,12.456 510.576,20.268 C510.576,28.752 505.62,34.884 498.984,37.74 L508.896,58.74 C509.148,59.328 508.728,60 508.056,60 L497.976,60 C497.136,60 496.296,59.496 495.96,58.74 L486.972,39.588 L479.076,39.588 Z M490.332,28.584 C497.136,28.416 498.648,22.872 498.648,20.268 C498.648,17.412 497.136,12.036 489.996,12.036 L479.076,12.036 L479.076,28.584 L490.332,28.584 Z M533.592,16.824 C533.76,12.708 537.456,11.364 541.572,11.364 C546.696,11.364 553.08,13.716 556.524,15.144 C557.28,15.396 558.12,15.06 558.456,14.304 L561.564,6.996 C561.9,6.24 561.564,5.4 560.892,5.064 C551.568,0.948 543.924,0.276 540.732,0.276 C529.644,0.276 521.664,6.66 521.664,17.412 C521.664,30.18 533.592,33.036 542.496,35.808 C548.208,37.572 552.576,39.84 551.904,44.04 C551.316,47.484 547.62,49.668 542.496,49.668 C537.204,49.668 531.996,47.904 526.788,45.468 C526.116,45.132 525.192,45.468 524.856,46.14 L520.992,53.448 C520.656,54.12 520.908,55.044 521.58,55.38 C528.3,58.824 534.768,60.672 543.084,60.672 C555.348,60.672 563.916,53.364 564.504,43.788 C565.26,31.188 553.584,27.492 544.428,24.384 C538.632,22.368 533.76,20.772 533.592,16.824 Z" id="VOLUNTEERS"></path>
                    <path d="M31.272,100.192 C53.532,100.192 60.336,118.252 60.336,130.516 C60.336,143.116 53.532,160.924 31.272,160.924 C8.844,160.924 2.04,143.116 2.04,130.516 C2.04,118.252 8.844,100.192 31.272,100.192 Z M31.272,149.92 C46.056,149.92 48.24,135.304 48.24,130.516 C48.24,125.728 46.056,111.28 31.272,111.28 C16.236,111.28 14.136,125.728 14.136,130.516 C14.136,135.304 16.236,149.92 31.272,149.92 Z M85.536,139.588 L85.536,158.572 C85.536,159.328 84.864,160 84.108,160 L75.204,160 C74.448,160 73.776,159.328 73.776,158.572 L73.776,102.628 C73.776,101.872 74.448,101.2 75.204,101.2 L96.036,101.2 C112.164,101.2 117.036,112.456 117.036,120.268 C117.036,128.752 112.08,134.884 105.444,137.74 L115.356,158.74 C115.608,159.328 115.188,160 114.516,160 L104.436,160 C103.596,160 102.756,159.496 102.42,158.74 L93.432,139.588 L85.536,139.588 Z M96.792,128.584 C103.596,128.416 105.108,122.872 105.108,120.268 C105.108,117.412 103.596,112.036 96.456,112.036 L85.536,112.036 L85.536,128.584 L96.792,128.584 Z M166.008,139.42 L166.008,146.896 C163.908,148.744 159.624,149.92 156.348,149.92 C141.312,149.92 139.212,135.136 139.212,130.348 C139.212,125.56 141.312,111.448 156.348,111.448 C160.884,111.448 166.344,113.884 169.788,116.824 C170.376,117.328 171.216,117.328 171.72,116.824 L177.096,111.028 C177.684,110.44 177.684,109.516 177.096,108.928 C171.72,103.552 165.252,100.36 156.348,100.36 C133.92,100.36 127.116,118.252 127.116,130.516 C127.116,143.116 133.92,160.756 156.348,160.756 C165,160.756 171.552,157.984 176.928,153.112 C177.6,152.44 177.936,151.6 177.936,150.676 L177.936,130.096 C177.936,129.34 177.264,128.668 176.508,128.668 L155.844,128.668 C155.088,128.668 154.416,129.34 154.416,130.096 L154.416,137.992 C154.416,138.748 155.088,139.42 155.844,139.42 L166.008,139.42 Z M214.98,101.368 L240.852,158.74 C241.104,159.328 240.684,160 240.012,160 L229.68,160 C228.84,160 228,159.496 227.748,158.656 L222.624,146.224 L204.48,146.224 L199.44,158.656 C199.104,159.496 198.348,160 197.508,160 L187.092,160 C186.42,160 186,159.328 186.252,158.74 L212.04,101.368 C212.292,100.864 212.88,100.444 213.468,100.444 C214.14,100.444 214.728,100.864 214.98,101.368 Z M213.552,123.628 L208.26,136.816 L218.844,136.816 L213.552,123.628 Z M262.86,160 C263.616,160 264.288,159.328 264.288,158.572 L264.288,125.812 L297.972,159.832 C298.476,160.252 299.064,160.504 299.736,160.504 C300.324,160.504 300.744,160.084 300.744,159.496 L300.744,102.628 C300.744,101.872 300.072,101.2 299.316,101.2 L290.244,101.2 C289.488,101.2 288.816,101.872 288.816,102.628 L288.816,134.548 L255.468,101.368 C254.88,100.78 254.208,100.528 253.452,100.528 C252.864,100.528 252.36,101.032 252.36,101.704 L252.36,158.572 C252.36,159.328 253.032,160 253.788,160 L262.86,160 Z M329.472,102.628 C329.472,101.872 328.8,101.2 328.044,101.2 L318.972,101.2 C318.216,101.2 317.544,101.872 317.544,102.628 L317.544,158.572 C317.544,159.328 318.216,160 318.972,160 L328.044,160 C328.8,160 329.472,159.328 329.472,158.572 L329.472,102.628 Z M361.56,149.08 L386.088,105.988 C386.508,105.148 386.76,104.224 386.76,103.3 L386.76,102.628 C386.76,101.872 386.088,101.2 385.332,101.2 L346.86,101.2 C346.104,101.2 345.432,101.872 345.432,102.628 L345.432,110.608 C345.432,111.364 346.104,112.036 346.86,112.036 L369.204,112.036 L345.096,155.38 C344.676,156.22 344.424,157.144 344.424,158.068 L344.424,158.572 C344.424,159.328 345.096,160 345.852,160 L386.424,160 C387.18,160 387.852,159.328 387.852,158.572 L387.852,150.508 C387.852,149.752 387.18,149.08 386.424,149.08 L361.56,149.08 Z M434.22,136.48 C434.976,136.48 435.648,135.808 435.648,135.052 L435.648,126.988 C435.648,126.232 434.976,125.56 434.22,125.56 L413.64,125.56 L413.64,112.12 L440.352,112.12 C441.108,112.12 441.78,111.448 441.78,110.692 L441.78,102.628 C441.78,101.872 441.108,101.2 440.352,101.2 L403.224,101.2 C402.468,101.2 401.796,101.872 401.796,102.628 L401.796,158.572 C401.796,159.328 402.468,160 403.224,160 L440.352,160 C441.108,160 441.78,159.328 441.78,158.572 L441.78,150.508 C441.78,149.752 441.108,149.08 440.352,149.08 L413.64,149.08 L413.64,136.48 L434.22,136.48 Z M466.98,139.588 L466.98,158.572 C466.98,159.328 466.308,160 465.552,160 L456.648,160 C455.892,160 455.22,159.328 455.22,158.572 L455.22,102.628 C455.22,101.872 455.892,101.2 456.648,101.2 L477.48,101.2 C493.608,101.2 498.48,112.456 498.48,120.268 C498.48,128.752 493.524,134.884 486.888,137.74 L496.8,158.74 C497.052,159.328 496.632,160 495.96,160 L485.88,160 C485.04,160 484.2,159.496 483.864,158.74 L474.876,139.588 L466.98,139.588 Z M478.236,128.584 C485.04,128.416 486.552,122.872 486.552,120.268 C486.552,117.412 485.04,112.036 477.9,112.036 L466.98,112.036 L466.98,128.584 L478.236,128.584 Z M521.496,116.824 C521.664,112.708 525.36,111.364 529.476,111.364 C534.6,111.364 540.984,113.716 544.428,115.144 C545.184,115.396 546.024,115.06 546.36,114.304 L549.468,106.996 C549.804,106.24 549.468,105.4 548.796,105.064 C539.472,100.948 531.828,100.276 528.636,100.276 C517.548,100.276 509.568,106.66 509.568,117.412 C509.568,130.18 521.496,133.036 530.4,135.808 C536.112,137.572 540.48,139.84 539.808,144.04 C539.22,147.484 535.524,149.668 530.4,149.668 C525.108,149.668 519.9,147.904 514.692,145.468 C514.02,145.132 513.096,145.468 512.76,146.14 L508.896,153.448 C508.56,154.12 508.812,155.044 509.484,155.38 C516.204,158.824 522.672,160.672 530.988,160.672 C543.252,160.672 551.82,153.364 552.408,143.788 C553.164,131.188 541.488,127.492 532.332,124.384 C526.536,122.368 521.664,120.772 521.496,116.824 Z" id="ORGANIZERS"></path>
                    <path d="M17.328,205.628 C17.328,204.872 16.656,204.2 15.9,204.2 L6.828,204.2 C6.072,204.2 5.4,204.872 5.4,205.628 L5.4,261.572 C5.4,262.328 6.072,263 6.828,263 L37.908,263 C38.664,263 39.336,262.328 39.336,261.572 L39.336,253.508 C39.336,252.752 38.664,252.08 37.908,252.08 L17.328,252.08 L17.328,205.628 Z M85.2,239.48 C85.956,239.48 86.628,238.808 86.628,238.052 L86.628,229.988 C86.628,229.232 85.956,228.56 85.2,228.56 L64.62,228.56 L64.62,215.12 L91.332,215.12 C92.088,215.12 92.76,214.448 92.76,213.692 L92.76,205.628 C92.76,204.872 92.088,204.2 91.332,204.2 L54.204,204.2 C53.448,204.2 52.776,204.872 52.776,205.628 L52.776,261.572 C52.776,262.328 53.448,263 54.204,263 L91.332,263 C92.088,263 92.76,262.328 92.76,261.572 L92.76,253.508 C92.76,252.752 92.088,252.08 91.332,252.08 L64.62,252.08 L64.62,239.48 L85.2,239.48 Z M129.636,204.368 L155.508,261.74 C155.76,262.328 155.34,263 154.668,263 L144.336,263 C143.496,263 142.656,262.496 142.404,261.656 L137.28,249.224 L119.136,249.224 L114.096,261.656 C113.76,262.496 113.004,263 112.164,263 L101.748,263 C101.076,263 100.656,262.328 100.908,261.74 L126.696,204.368 C126.948,203.864 127.536,203.444 128.124,203.444 C128.796,203.444 129.384,203.864 129.636,204.368 Z M128.208,226.628 L122.916,239.816 L133.5,239.816 L128.208,226.628 Z M187.932,263 L168.444,263 C167.688,263 167.016,262.328 167.016,261.572 L167.016,205.628 C167.016,204.872 167.688,204.2 168.444,204.2 L187.932,204.2 C210.276,204.2 216.996,221.252 216.996,233.516 C216.996,246.116 210.276,263 187.932,263 Z M178.776,252.08 L187.932,252.08 C202.8,252.08 204.984,238.304 204.984,233.516 C204.984,228.728 202.8,215.036 187.932,215.036 L178.776,215.036 L178.776,252.08 Z M262.86,239.48 C263.616,239.48 264.288,238.808 264.288,238.052 L264.288,229.988 C264.288,229.232 263.616,228.56 262.86,228.56 L242.28,228.56 L242.28,215.12 L268.992,215.12 C269.748,215.12 270.42,214.448 270.42,213.692 L270.42,205.628 C270.42,204.872 269.748,204.2 268.992,204.2 L231.864,204.2 C231.108,204.2 230.436,204.872 230.436,205.628 L230.436,261.572 C230.436,262.328 231.108,263 231.864,263 L268.992,263 C269.748,263 270.42,262.328 270.42,261.572 L270.42,253.508 C270.42,252.752 269.748,252.08 268.992,252.08 L242.28,252.08 L242.28,239.48 L262.86,239.48 Z M295.62,242.588 L295.62,261.572 C295.62,262.328 294.948,263 294.192,263 L285.288,263 C284.532,263 283.86,262.328 283.86,261.572 L283.86,205.628 C283.86,204.872 284.532,204.2 285.288,204.2 L306.12,204.2 C322.248,204.2 327.12,215.456 327.12,223.268 C327.12,231.752 322.164,237.884 315.528,240.74 L325.44,261.74 C325.692,262.328 325.272,263 324.6,263 L314.52,263 C313.68,263 312.84,262.496 312.504,261.74 L303.516,242.588 L295.62,242.588 Z M306.876,231.584 C313.68,231.416 315.192,225.872 315.192,223.268 C315.192,220.412 313.68,215.036 306.54,215.036 L295.62,215.036 L295.62,231.584 L306.876,231.584 Z M350.136,219.824 C350.304,215.708 354,214.364 358.116,214.364 C363.24,214.364 369.624,216.716 373.068,218.144 C373.824,218.396 374.664,218.06 375,217.304 L378.108,209.996 C378.444,209.24 378.108,208.4 377.436,208.064 C368.112,203.948 360.468,203.276 357.276,203.276 C346.188,203.276 338.208,209.66 338.208,220.412 C338.208,233.18 350.136,236.036 359.04,238.808 C364.752,240.572 369.12,242.84 368.448,247.04 C367.86,250.484 364.164,252.668 359.04,252.668 C353.748,252.668 348.54,250.904 343.332,248.468 C342.66,248.132 341.736,248.468 341.4,249.14 L337.536,256.448 C337.2,257.12 337.452,258.044 338.124,258.38 C344.844,261.824 351.312,263.672 359.628,263.672 C371.892,263.672 380.46,256.364 381.048,246.788 C381.804,234.188 370.128,230.492 360.972,227.384 C355.176,225.368 350.304,223.772 350.136,219.824 Z" id="LEADERS"></path>
                </g>
                <path d="M137.34882,0 C136.003713,0 134.826745,0.840716047 134.32233,2.01771851 L106.243233,72.1334368 L78.3322743,3.86729382 C77.6597211,2.18586172 76.1464763,1.17700247 74.4650932,1.17700247 L53.6159432,1.17700247 C52.2708368,1.17700247 51.4301452,2.52214814 51.9345602,3.86729382 L103.384882,118.036533 C103.889297,119.045392 104.898127,119.717965 106.075095,119.717965 C107.252063,119.717965 108.260893,119.045392 108.597169,118.036533 L137.34882,51.7881085 L166.10047,118.036533 C166.436747,119.045392 167.445577,119.717965 168.622545,119.717965 C169.799513,119.717965 170.808343,119.045392 171.14462,118.036533 L222.76308,3.86729382 C223.267495,2.52214814 222.426803,1.17700247 221.081697,1.17700247 L200.232547,1.17700247 C198.551164,1.17700247 196.86978,2.18586172 196.365366,3.86729382 L168.454407,72.1334368 L140.375309,2.01771851 C139.870895,0.840716047 138.693926,0 137.34882,0 Z M310.867552,71.7971504 C312.380797,71.7971504 313.725904,70.4520047 313.725904,68.9387159 L313.725904,52.7969678 C313.725904,51.2836789 312.380797,49.9385332 310.867552,49.9385332 L269.673667,49.9385332 L269.673667,23.0356197 L323.141649,23.0356197 C324.654894,23.0356197 326,21.690474 326,20.1771851 L326,4.03543703 C326,2.52214814 324.654894,1.17700247 323.141649,1.17700247 L248.824517,1.17700247 C247.311272,1.17700247 245.966166,2.52214814 245.966166,4.03543703 L245.966166,116.018815 C245.966166,117.532103 247.311272,118.877249 248.824517,118.877249 L323.141649,118.877249 C324.654894,118.877249 326,117.532103 326,116.018815 L326,99.8770664 C326,98.3637775 324.654894,97.0186318 323.141649,97.0186318 L269.673667,97.0186318 L269.673667,71.7971504 L310.867552,71.7971504 Z M57.6512626,145.63604 L109.437861,260.477852 C109.942276,261.654854 109.101584,263 107.756478,263 L87.0754662,263 C85.3940832,263 83.7127001,261.991141 83.2082852,260.309709 L72.9518485,235.424514 L36.6339743,235.424514 L26.5456759,260.309709 C25.8731226,261.991141 24.3598779,263 22.6784948,263 L1.82934478,263 C0.484238323,263 -0.35645321,261.654854 0.14796171,260.477852 L51.7664219,145.63604 C52.2708368,144.627181 53.4478049,143.786465 54.6247731,143.786465 C55.9698795,143.786465 57.1468477,144.627181 57.6512626,145.63604 Z M54.7929114,190.19399 L44.2001981,216.592474 L65.3856247,216.592474 L54.7929114,190.19399 Z M156.012172,222.1412 L156.012172,260.141565 C156.012172,261.654854 154.667066,263 153.153821,263 L135.33116,263 C133.817915,263 132.472809,261.654854 132.472809,260.141565 L132.472809,148.158188 C132.472809,146.644899 133.817915,145.299753 135.33116,145.299753 L177.02946,145.299753 C209.312015,145.299753 219.064037,167.830943 219.064037,183.468262 C219.064037,200.450726 209.143877,212.72518 195.860951,218.44205 L215.701271,260.477852 C216.205686,261.654854 215.364994,263 214.019888,263 L193.843291,263 C192.161908,263 190.480525,261.991141 189.807972,260.477852 L171.817173,222.1412 L156.012172,222.1412 Z M178.542705,200.11444 C192.161908,199.778153 195.188397,188.680701 195.188397,183.468262 C195.188397,177.751393 192.161908,166.990227 177.870152,166.990227 L156.012172,166.990227 L156.012172,200.11444 L178.542705,200.11444 Z M310.867552,215.919901 C312.380797,215.919901 313.725904,214.574756 313.725904,213.061467 L313.725904,196.919719 C313.725904,195.40643 312.380797,194.061284 310.867552,194.061284 L269.673667,194.061284 L269.673667,167.158371 L323.141649,167.158371 C324.654894,167.158371 326,165.813225 326,164.299936 L326,148.158188 C326,146.644899 324.654894,145.299753 323.141649,145.299753 L248.824517,145.299753 C247.311272,145.299753 245.966166,146.644899 245.966166,148.158188 L245.966166,260.141565 C245.966166,261.654854 247.311272,263 248.824517,263 L323.141649,263 C324.654894,263 326,261.654854 326,260.141565 L326,243.999817 C326,242.486528 324.654894,241.141383 323.141649,241.141383 L269.673667,241.141383 L269.673667,215.919901 L310.867552,215.919901 Z" id="WE-ARE" fill="#FFFFFF"></path>
            </g>
        </g>
    </g>
</svg>