<?xml version="1.0" encoding="UTF-8" standalone="no"?>
<svg width="240px" height="80px" viewBox="0 0 240 80" version="1.1" xmlns="http://www.w3.org/2000/svg" xmlns:xlink="http://www.w3.org/1999/xlink">
    <!-- Generator: Sketch 41.1 (35376) - http://www.bohemiancoding.com/sketch -->
    <title>logo-wordmark</title>
    <desc>Created with Sketch.</desc>
    <defs></defs>
    <g id="Branding" stroke="none" stroke-width="1" fill="none" fill-rule="evenodd">
        <g id="concept-marker-1-copy-10" transform="translate(-29.000000, -24.000000)" fill="#FF8552">
            <g id="logo-wordmark" transform="translate(29.000000, 24.000000)">
                <g id="logo">
                    <g id="logo-icon">
                        <path d="M48.9705627,38.4852814 L33.4177113,54.0381328 C32.634731,54.8211131 31.3657067,54.8215508 30.5822887,54.0381328 L15.0294373,38.4852814 C10.3431458,33.7989899 10.3431458,26.2010101 15.0294373,21.5147186 C19.7157288,16.8284271 27.3137085,16.8284271 32,21.5147186 C36.6862915,16.8284271 44.2842712,16.8284271 48.9705627,21.5147186 C53.6568542,26.2010101 53.6568542,33.7989899 48.9705627,38.4852814 Z M30.5733022,78.6113167 C31.3612457,79.3782653 32.6392121,79.3837398 33.4371398,78.6009985 C33.4371398,78.6009985 64,49.673112 64,32 C64,14.326888 49.673112,-7.10542736e-15 32,-7.10542736e-15 C14.326888,-7.10542736e-15 0,14.326888 0,32 C0,49.673112 30.5733022,78.6113167 30.5733022,78.6113167 Z" id="Combined-Shape"></path>
                    </g>
                </g>
                <g id="Group-2" transform="translate(79.000000, 10.000000)">
                    <g id="Group">
                        <path d="M13.7396747,9.6 C13.523676,9.6 13.3346772,9.73483146 13.2536777,9.92359551 L8.74470569,21.1685393 L4.26273352,10.2202247 C4.15473419,9.9505618 3.9117357,9.78876404 3.64173738,9.78876404 L0.293758175,9.78876404 C0.077759517,9.78876404 -0.0572396445,10.0044944 0.0237598524,10.2202247 L8.28570854,28.5303371 C8.36670803,28.6921348 8.52870703,28.8 8.71770585,28.8 C8.90670468,28.8 9.06870367,28.6921348 9.12270334,28.5303371 L13.7396747,17.905618 L18.356646,28.5303371 C18.4106456,28.6921348 18.5726446,28.8 18.7616435,28.8 C18.9506423,28.8 19.1126413,28.6921348 19.166641,28.5303371 L27.4555895,10.2202247 C27.536589,10.0044944 27.4015898,9.78876404 27.1855911,9.78876404 L23.8376119,9.78876404 C23.5676136,9.78876404 23.2976153,9.9505618 23.2166158,10.2202247 L18.7346436,21.1685393 L14.2256716,9.92359551 C14.1446721,9.73483146 13.9556733,9.6 13.7396747,9.6 Z M40.5235083,21.1146067 C40.7665068,21.1146067 40.9825055,20.8988764 40.9825055,20.6561798 L40.9825055,18.0674157 C40.9825055,17.8247191 40.7665068,17.6089888 40.5235083,17.6089888 L33.9085494,17.6089888 L33.9085494,13.294382 L42.4944961,13.294382 C42.7374945,13.294382 42.9534932,13.0786517 42.9534932,12.8359551 L42.9534932,10.247191 C42.9534932,10.0044944 42.7374945,9.78876404 42.4944961,9.78876404 L30.5605702,9.78876404 C30.3175717,9.78876404 30.101573,10.0044944 30.101573,10.247191 L30.101573,28.2067416 C30.101573,28.4494382 30.3175717,28.6651685 30.5605702,28.6651685 L42.4944961,28.6651685 C42.7374945,28.6651685 42.9534932,28.4494382 42.9534932,28.2067416 L42.9534932,25.6179775 C42.9534932,25.3752809 42.7374945,25.1595506 42.4944961,25.1595506 L33.9085494,25.1595506 L33.9085494,21.1146067 L40.5235083,21.1146067 Z" id="WE"></path>
                        <path d="M69.8129763,0.0806722689 C69.4898859,0.0806722689 69.2071817,0.282352941 69.0860228,0.564705882 L62.3415101,17.3848739 L55.6373837,1.00840336 C55.4758385,0.605042017 55.1123617,0.36302521 54.7084987,0.36302521 L49.700597,0.36302521 C49.3775066,0.36302521 49.1755751,0.685714286 49.296734,1.00840336 L61.6549429,28.3966387 C61.7761018,28.6386555 62.0184197,28.8 62.3011238,28.8 C62.5838279,28.8 62.8261457,28.6386555 62.9069183,28.3966387 L69.8129763,12.5042017 L76.7190342,28.3966387 C76.7998068,28.6386555 77.0421247,28.8 77.3248288,28.8 C77.6075329,28.8 77.8498507,28.6386555 77.9306234,28.3966387 L90.3292186,1.00840336 C90.4503775,0.685714286 90.248446,0.36302521 89.9253556,0.36302521 L84.9174539,0.36302521 C84.5135909,0.36302521 84.1097278,0.605042017 83.9885689,1.00840336 L77.2844425,17.3848739 L70.5399298,0.564705882 C70.4187709,0.282352941 70.1360667,0.0806722689 69.8129763,0.0806722689 Z M99.4969096,0.443697479 C99.3757507,0.201680672 99.0930465,0 98.7699561,0 C98.487252,0 98.2045478,0.201680672 98.0833889,0.443697479 L85.6847937,27.9932773 C85.5636348,28.2756303 85.7655663,28.5983193 86.0886567,28.5983193 L91.0965584,28.5983193 C91.5004214,28.5983193 91.8638982,28.3563025 92.0254434,27.9529412 L94.4486216,21.9831933 L103.172063,21.9831933 L105.635628,27.9529412 C105.756787,28.3563025 106.16065,28.5983193 106.564513,28.5983193 L111.532028,28.5983193 C111.855119,28.5983193 112.05705,28.2756303 111.935891,27.9932773 L99.4969096,0.443697479 Z M98.8103424,11.1327731 L101.35468,17.4655462 L96.2660053,17.4655462 L98.8103424,11.1327731 Z M121.588218,1.0487395 C121.588218,0.685714286 121.265127,0.36302521 120.901651,0.36302521 L116.53993,0.36302521 C116.176453,0.36302521 115.853363,0.685714286 115.853363,1.0487395 L115.853363,27.912605 C115.853363,28.2756303 116.176453,28.5983193 116.53993,28.5983193 L131.482862,28.5983193 C131.846339,28.5983193 132.169429,28.2756303 132.169429,27.912605 L132.169429,24.0403361 C132.169429,23.6773109 131.846339,23.3546218 131.482862,23.3546218 L121.588218,23.3546218 L121.588218,1.0487395 Z M142.064074,28.5983193 C142.42755,28.5983193 142.750641,28.2756303 142.750641,27.912605 L142.750641,16.6991597 L153.25108,28.1142857 C153.57417,28.4369748 153.978033,28.5983193 154.422283,28.5983193 L159.91482,28.5983193 C160.197524,28.5983193 160.318683,28.2756303 160.157138,28.0739496 L147.112362,14.0369748 L159.187867,0.887394958 C159.349412,0.685714286 159.228253,0.36302521 158.945549,0.36302521 L153.654943,0.36302521 C153.210694,0.36302521 152.806831,0.564705882 152.524126,0.887394958 L142.750641,11.6571429 L142.750641,1.0487395 C142.750641,0.685714286 142.42755,0.36302521 142.064074,0.36302521 L137.702353,0.36302521 C137.338876,0.36302521 137.015786,0.685714286 137.015786,1.0487395 L137.015786,27.912605 C137.015786,28.2756303 137.338876,28.5983193 137.702353,28.5983193 L142.064074,28.5983193 Z" id="WALK"></path>
                    </g>
                    <path d="M5.02086206,56.2873274 C5.02086206,56.5322087 5.23338532,56.749881 5.47247399,56.749881 L8.36810343,56.749881 C8.6071921,56.749881 8.81971536,56.5322087 8.81971536,56.2873274 L8.81971536,41.2407319 L13.4420963,41.2407319 C13.681185,41.2407319 13.8937082,41.0230597 13.8937082,40.7781784 L13.8937082,38.1661111 C13.8937082,37.9212298 13.681185,37.7035576 13.4420963,37.7035576 L0.451611931,37.7035576 C0.212523262,37.7035576 0,37.9212298 0,38.1661111 L0,40.7781784 C0,41.0230597 0.212523262,41.2407319 0.451611931,41.2407319 L5.02086206,41.2407319 L5.02086206,56.2873274 Z M26.909603,37.3770492 C19.8166391,37.3770492 17.6648411,43.2269914 17.6648411,47.1995102 C17.6648411,51.2808652 19.8166391,57.0491803 26.909603,57.0491803 C33.9494361,57.0491803 36.1012341,51.2808652 36.1012341,47.1995102 C36.1012341,43.2269914 33.9494361,37.3770492 26.909603,37.3770492 Z M26.909603,53.484797 C22.154395,53.484797 21.4902598,48.7504251 21.4902598,47.1995102 C21.4902598,45.6485953 22.154395,40.9686416 26.909603,40.9686416 C31.5851148,40.9686416 32.2758154,45.6485953 32.2758154,47.1995102 C32.2758154,48.7504251 31.5851148,53.484797 26.909603,53.484797 Z M53.8989022,50.0836678 L53.8989022,52.5052718 C53.234767,53.1038705 51.8799312,53.484797 50.8438803,53.484797 C46.0886724,53.484797 45.4245372,48.6960071 45.4245372,47.1450922 C45.4245372,45.5941773 46.0886724,41.0230597 50.8438803,41.0230597 C52.2784124,41.0230597 54.0051639,41.8121216 55.0943456,42.7644378 C55.2803034,42.927692 55.5459575,42.927692 55.70535,42.7644378 L57.4055361,40.8870145 C57.5914939,40.6965513 57.5914939,40.3972519 57.4055361,40.2067887 C55.70535,38.4654105 53.6598136,37.4314672 50.8438803,37.4314672 C43.7509165,37.4314672 41.5991185,43.2269914 41.5991185,47.1995102 C41.5991185,51.2808652 43.7509165,56.9947623 50.8438803,56.9947623 C53.5801173,56.9947623 55.6522191,56.0968642 57.3524052,54.5187402 C57.5649285,54.301068 57.6711901,54.0289776 57.6711901,53.7296783 L57.6711901,47.0634651 C57.6711901,46.8185838 57.4586669,46.6009115 57.2195782,46.6009115 L50.6844879,46.6009115 C50.4453992,46.6009115 50.232876,46.8185838 50.232876,47.0634651 L50.232876,49.6211142 C50.232876,49.8659955 50.4453992,50.0836678 50.6844879,50.0836678 L53.8989022,50.0836678 Z M74.539069,49.1313516 C74.7781577,49.1313516 74.9906809,48.9136793 74.9906809,48.668798 L74.9906809,46.0567308 C74.9906809,45.8118495 74.7781577,45.5941773 74.539069,45.5941773 L68.0305441,45.5941773 L68.0305441,41.2407319 L76.4783438,41.2407319 C76.7174324,41.2407319 76.9299557,41.0230597 76.9299557,40.7781784 L76.9299557,38.1661111 C76.9299557,37.9212298 76.7174324,37.7035576 76.4783438,37.7035576 L64.7364336,37.7035576 C64.4973449,37.7035576 64.2848216,37.9212298 64.2848216,38.1661111 L64.2848216,56.2873274 C64.2848216,56.5322087 64.4973449,56.749881 64.7364336,56.749881 L76.4783438,56.749881 C76.7174324,56.749881 76.9299557,56.5322087 76.9299557,56.2873274 L76.9299557,53.6752602 C76.9299557,53.4303789 76.7174324,53.2127066 76.4783438,53.2127066 L68.0305441,53.2127066 L68.0305441,49.1313516 L74.539069,49.1313516 Z M87.050221,56.2873274 C87.050221,56.5322087 87.2627443,56.749881 87.501833,56.749881 L90.3974624,56.749881 C90.6365511,56.749881 90.8490743,56.5322087 90.8490743,56.2873274 L90.8490743,41.2407319 L95.4714553,41.2407319 C95.7105439,41.2407319 95.9230672,41.0230597 95.9230672,40.7781784 L95.9230672,38.1661111 C95.9230672,37.9212298 95.7105439,37.7035576 95.4714553,37.7035576 L82.4809709,37.7035576 C82.2418822,37.7035576 82.029359,37.9212298 82.029359,38.1661111 L82.029359,40.7781784 C82.029359,41.0230597 82.2418822,41.2407319 82.4809709,41.2407319 L87.050221,41.2407319 L87.050221,56.2873274 Z M105.591721,49.1313516 L113.34882,49.1313516 L113.34882,56.2873274 C113.34882,56.5322087 113.561343,56.749881 113.800432,56.749881 L116.64293,56.749881 C116.882019,56.749881 117.094542,56.5322087 117.094542,56.2873274 L117.094542,38.1661111 C117.094542,37.9212298 116.882019,37.7035576 116.64293,37.7035576 L113.800432,37.7035576 C113.561343,37.7035576 113.34882,37.9212298 113.34882,38.1661111 L113.34882,45.5941773 L105.591721,45.5941773 L105.591721,38.1661111 C105.591721,37.9212298 105.379197,37.7035576 105.140109,37.7035576 L102.271045,37.7035576 C102.031956,37.7035576 101.819433,37.9212298 101.819433,38.1661111 L101.819433,56.2873274 C101.819433,56.5322087 102.031956,56.749881 102.271045,56.749881 L105.140109,56.749881 C105.379197,56.749881 105.591721,56.5322087 105.591721,56.2873274 L105.591721,49.1313516 Z M134.440598,49.1313516 C134.679687,49.1313516 134.89221,48.9136793 134.89221,48.668798 L134.89221,46.0567308 C134.89221,45.8118495 134.679687,45.5941773 134.440598,45.5941773 L127.932073,45.5941773 L127.932073,41.2407319 L136.379873,41.2407319 C136.618962,41.2407319 136.831485,41.0230597 136.831485,40.7781784 L136.831485,38.1661111 C136.831485,37.9212298 136.618962,37.7035576 136.379873,37.7035576 L124.637963,37.7035576 C124.398874,37.7035576 124.186351,37.9212298 124.186351,38.1661111 L124.186351,56.2873274 C124.186351,56.5322087 124.398874,56.749881 124.637963,56.749881 L136.379873,56.749881 C136.618962,56.749881 136.831485,56.5322087 136.831485,56.2873274 L136.831485,53.6752602 C136.831485,53.4303789 136.618962,53.2127066 136.379873,53.2127066 L127.932073,53.2127066 L127.932073,49.1313516 L134.440598,49.1313516 Z M147.111143,50.1380858 L149.608291,50.1380858 L152.45079,56.3417455 C152.557051,56.5866268 152.822705,56.749881 153.08836,56.749881 L156.276209,56.749881 C156.488732,56.749881 156.621559,56.5322087 156.541863,56.3417455 L153.407144,49.5394871 C155.505812,48.61438 157.073171,46.6281205 157.073171,43.8800082 C157.073171,41.3495681 155.532377,37.7035576 150.431819,37.7035576 L143.843598,37.7035576 C143.604509,37.7035576 143.391986,37.9212298 143.391986,38.1661111 L143.391986,56.2873274 C143.391986,56.5322087 143.604509,56.749881 143.843598,56.749881 L146.659531,56.749881 C146.89862,56.749881 147.111143,56.5322087 147.111143,56.2873274 L147.111143,50.1380858 Z M150.670907,46.5737025 L147.111143,46.5737025 L147.111143,41.2135229 L150.564646,41.2135229 C152.822705,41.2135229 153.300883,42.954901 153.300883,43.8800082 C153.300883,44.7234882 152.822705,46.5192844 150.670907,46.5737025 Z" id="TOGETHER"></path>
                </g>
            </g>
        </g>
    </g>
</svg>