<?xml version="1.0" encoding="UTF-8" standalone="no"?>
<svg width="217px" height="80px" viewBox="0 0 217 80" version="1.1" xmlns="http://www.w3.org/2000/svg" xmlns:xlink="http://www.w3.org/1999/xlink">
    <!-- Generator: Sketch 41.1 (35376) - http://www.bohemiancoding.com/sketch -->
    <title>logo</title>
    <desc>Created with Sketch.</desc>
    <defs></defs>
    <g id="Branding" stroke="none" stroke-width="1" fill="none" fill-rule="evenodd">
        <g id="concept-marker-1-copy-2" transform="translate(-29.000000, -24.000000)" fill="#FF8552">
            <g id="logo" transform="translate(29.000000, 24.000000)">
                <path d="M104.729888,22 C104.325393,22 103.971461,22.252809 103.819775,22.6067416 L95.3759551,43.6910112 L86.9826966,23.1629213 C86.7804494,22.6573034 86.3253933,22.3539326 85.8197753,22.3539326 L79.5501124,22.3539326 C79.145618,22.3539326 78.892809,22.758427 79.0444944,23.1629213 L94.5164045,57.494382 C94.6680899,57.7977528 94.9714607,58 95.3253933,58 C95.6793258,58 95.9826966,57.7977528 96.0838202,57.494382 L104.729888,37.5730337 L113.375955,57.494382 C113.477079,57.7977528 113.780449,58 114.134382,58 C114.488315,58 114.791685,57.7977528 114.892809,57.494382 L130.415281,23.1629213 C130.566966,22.758427 130.314157,22.3539326 129.909663,22.3539326 L123.64,22.3539326 C123.134382,22.3539326 122.628764,22.6573034 122.477079,23.1629213 L114.08382,43.6910112 L105.64,22.6067416 C105.488315,22.252809 105.134382,22 104.729888,22 Z M159.892809,22 C159.488315,22 159.134382,22.252809 158.982697,22.6067416 L150.538876,43.6910112 L142.145618,23.1629213 C141.943371,22.6573034 141.488315,22.3539326 140.982697,22.3539326 L134.713034,22.3539326 C134.308539,22.3539326 134.05573,22.758427 134.207416,23.1629213 L149.679326,57.494382 C149.831011,57.7977528 150.134382,58 150.488315,58 C150.842247,58 151.145618,57.7977528 151.246742,57.494382 L159.892809,37.5730337 L168.538876,57.494382 C168.64,57.7977528 168.943371,58 169.297303,58 C169.651236,58 169.954607,57.7977528 170.05573,57.494382 L185.578202,23.1629213 C185.729888,22.758427 185.477079,22.3539326 185.072584,22.3539326 L178.802921,22.3539326 C178.297303,22.3539326 177.791685,22.6573034 177.64,23.1629213 L169.246742,43.6910112 L160.802921,22.6067416 C160.651236,22.252809 160.297303,22 159.892809,22 Z M199.331011,56.8876404 C199.331011,57.3426966 199.735506,57.747191 200.190562,57.747191 L205.701798,57.747191 C206.156854,57.747191 206.561348,57.3426966 206.561348,56.8876404 L206.561348,28.9269663 L215.359101,28.9269663 C215.814157,28.9269663 216.218652,28.5224719 216.218652,28.0674157 L216.218652,23.2134831 C216.218652,22.758427 215.814157,22.3539326 215.359101,22.3539326 L190.634382,22.3539326 C190.179326,22.3539326 189.774831,22.758427 189.774831,23.2134831 L189.774831,28.0674157 C189.774831,28.5224719 190.179326,28.9269663 190.634382,28.9269663 L199.331011,28.9269663 L199.331011,56.8876404 Z" id="WWT"></path>
                <g id="Group">
                    <path d="M48.9705627,38.4852814 L33.4177113,54.0381328 C32.634731,54.8211131 31.3657067,54.8215508 30.5822887,54.0381328 L15.0294373,38.4852814 C10.3431458,33.7989899 10.3431458,26.2010101 15.0294373,21.5147186 C19.7157288,16.8284271 27.3137085,16.8284271 32,21.5147186 C36.6862915,16.8284271 44.2842712,16.8284271 48.9705627,21.5147186 C53.6568542,26.2010101 53.6568542,33.7989899 48.9705627,38.4852814 Z M30.5733022,78.6113167 C31.3612457,79.3782653 32.6392121,79.3837398 33.4371398,78.6009985 C33.4371398,78.6009985 64,49.673112 64,32 C64,14.326888 49.673112,7.10542736e-15 32,7.10542736e-15 C14.326888,7.10542736e-15 0,14.326888 0,32 C0,49.673112 30.5733022,78.6113167 30.5733022,78.6113167 Z" id="Combined-Shape"></path>
                </g>
            </g>
        </g>
    </g>
</svg>